<svg width="334" height="270" viewBox="0 0 334 270" fill="none" xmlns="http://www.w3.org/2000/svg">
<g clip-path="url(#clip0_1_17)">
<path d="M75.1788 136.554C70.9288 136.269 68.9493 137.095 67.6712 137.937C67.2608 138.208 66.856 138.524 66.4734 138.866C68.4051 134.95 70.3837 131.051 72.4 127.179C72.4131 127.699 72.5055 127.946 72.7341 128.069C73.2569 128.351 74.4766 127.448 76.8948 125.631C78.7329 124.25 78.9677 123.899 79.1043 123.66C79.5848 122.816 79.544 122.121 79.2477 119.09C78.7162 113.651 78.5792 113.14 78.837 111.856C78.9257 111.413 79.1679 110.348 78.996 110.287C78.8192 110.224 78.5446 111.342 77.5668 112.071C76.6138 112.782 75.9431 112.415 75.0771 112.873C73.9576 113.464 73.6494 114.833 73.186 117.036C72.7756 118.986 72.8803 119.676 72.6357 123.351C72.5664 124.392 72.5006 125.202 72.4557 125.84C70.6504 129.289 68.879 132.764 67.1394 136.252C67.163 136.156 67.1851 136.066 67.2043 135.988C67.7425 133.783 67.5631 132.765 67.2926 132.05C66.8544 130.892 65.9834 130.198 64.2593 128.859C62.5697 127.546 61.1406 126.79 59.4232 125.893C57.172 124.716 56.0464 124.127 55.7411 124.299C54.9744 124.731 55.0884 126.994 55.7288 129.826C54.271 129.074 53.4967 128.722 53.2518 128.86C53.1463 128.919 53.0581 129.014 52.985 129.14C51.8951 129.086 50.4505 129.148 48.7975 129.365C50.1017 128.893 51.5674 128.272 53.1463 127.424C54.5148 126.689 55.1978 126.315 55.1323 126.006C54.8978 124.901 45.5527 124.923 37.5417 129.125C33.7701 131.103 32.5159 132.843 31.8673 134.228C31.6591 134.673 31.4797 135.155 31.3326 135.647C30.9287 131.299 30.574 126.941 30.2656 122.587C30.5489 123.024 30.7568 123.186 31.0162 123.171C31.6094 123.138 32.1763 121.731 33.2859 118.919C34.1294 116.78 34.1462 116.359 34.1371 116.083C34.105 115.113 33.7062 114.542 31.8673 112.114C28.5668 107.756 28.1828 107.393 27.73 106.163C27.5741 105.74 27.2227 104.705 27.0441 104.743C26.8606 104.782 27.2119 105.878 26.7604 107.011C26.3203 108.115 25.5566 108.153 25.0581 108.995C24.4137 110.085 24.8674 111.412 25.6255 113.532C26.2968 115.409 26.7473 115.942 28.4627 119.202C28.9486 120.126 29.3166 120.85 29.6122 121.417C29.8793 125.301 30.1884 129.188 30.5318 133.07C30.5018 132.976 30.4735 132.888 30.4487 132.811C29.7531 130.65 29.0675 129.876 28.4627 129.409C27.4829 128.651 26.3776 128.515 24.2069 128.275C22.0798 128.039 20.4661 128.142 18.5325 128.275C15.998 128.449 14.7306 128.535 14.5604 128.842C14.0933 129.682 15.6719 131.837 18.0308 134.142C16.1052 134.279 15.1236 134.379 14.9753 134.646C14.5877 135.343 15.6113 136.947 17.3168 138.789C16.1313 138.891 15.506 138.998 15.3902 139.206C14.0889 141.547 28.6297 154.086 31.8459 151.681C32.0902 151.498 32.2632 151.23 32.3823 150.903C32.435 151.345 32.4888 151.788 32.5425 152.23C28.7431 151.803 21.4444 152.947 17.1139 157.477C14.9612 159.728 14.6367 161.672 14.5604 162.296C14.2221 165.066 15.5707 168.013 16.6897 168.23C17.02 170.291 18.0551 171.996 18.9047 171.982C19.9698 171.963 19.7813 169.259 22.3093 166.311C24.0732 164.255 26.1709 163.232 27.4162 162.626C30.0911 161.322 31.6452 161.361 33.5721 160.299C33.6108 160.585 33.652 160.871 33.6911 161.157C30.1616 161.748 26.1311 163.261 23.3372 166.183C21.1845 168.435 20.86 170.378 20.7838 171.003C20.5753 172.709 21.009 174.481 21.6331 175.644C19.9353 177.426 19.4659 179.287 18.5325 182.993C17.9363 185.361 18.0665 186.201 18.5325 186.679C18.9179 187.074 19.5268 187.215 21.9372 186.962C24.5519 186.689 25.8592 186.552 27.0441 186.112C28.9184 185.416 30.2106 184.221 32.7185 181.859C33.7498 180.888 34.6218 180.063 35.3326 179.343C35.7025 179.469 36.0496 179.565 36.4001 179.634C36.4408 179.642 36.481 179.648 36.5215 179.656C37.1682 183.486 37.8516 187.304 38.5707 191.107C36.2314 191.629 34.2327 193.168 33.1344 195.382L24.4555 212.879C23.9076 213.983 23.6179 215.219 23.6179 216.451V261.442C23.6179 265.878 27.2294 269.487 31.6685 269.487H51.9265C56.3656 269.487 59.9771 265.878 59.9771 261.442V220.014C59.9771 219.004 59.7899 218.016 59.4206 217.075L51.1491 196.016C49.9531 192.971 47.095 190.988 43.8361 190.917C45.5258 186.462 47.2691 182.013 49.0734 177.582C49.3514 177.474 49.5975 177.362 49.8113 177.243C50.1441 177.608 50.8262 178.033 52.2724 178.725C54.6441 179.858 55.83 180.425 57.0701 180.669C59.0318 181.056 60.7587 180.713 64.1324 180.011C68.723 179.056 71.0281 178.551 71.5083 177.217C72.1729 175.369 70.0884 172.99 69.5138 172.334C68.2651 170.908 66.8868 170.258 66.0352 169.868C64.9293 169.36 61.7774 167.913 57.9673 168.911C55.5691 169.539 54.1957 170.88 51.4486 173.562C51.1841 173.82 50.9558 174.055 50.753 174.274C50.7073 174.143 50.6558 174.013 50.5992 173.884C50.9844 172.956 51.3697 172.028 51.7596 171.102C54.5766 168.431 55.9629 166.961 55.6998 165.699C55.5763 165.106 55.2027 164.608 54.7218 164.194C55.2562 162.967 55.7917 161.742 56.3337 160.521C56.5829 160.515 56.84 160.504 57.1169 160.478C58.5684 160.341 60.2118 160.186 60.387 159.489C60.4798 159.121 60.1605 158.582 59.533 157.975C60.4397 157.723 61.8209 155.878 64.9213 154.88C67.5013 154.049 69.8241 154.274 71.2032 154.408C74.7619 154.754 75.9231 155.908 79.1226 155.606C80.5742 155.47 82.2176 155.315 82.3928 154.618C82.4715 154.305 82.2515 153.869 81.8013 153.374C82.6076 153.485 83.4703 153.574 84.3898 153.626C85.941 153.715 86.7187 153.754 86.8245 153.456C87.2034 152.392 79.2272 147.526 70.2001 146.919C68.0085 146.772 66.4238 146.921 65.2246 147.215C68.1099 146.139 72.4042 144.503 77.1186 145.827C78.7416 146.283 82.0262 147.544 86.8792 147.822C88.4303 147.911 89.208 147.95 89.3139 147.652C89.6926 146.588 81.7232 141.726 72.7008 141.116C74.7949 140.693 77.1438 140.575 79.6079 141.267C81.231 141.723 84.5155 142.983 89.3685 143.262C90.9196 143.351 91.6973 143.389 91.8032 143.092C92.182 142.027 84.2058 137.161 75.1788 136.554ZM33.4775 155.197C33.5998 155.101 33.7196 155.004 33.8351 154.908C34.0422 155.212 34.2609 155.446 34.4797 155.594C34.5029 155.716 34.5279 155.836 34.5559 155.955C34.2477 155.922 33.9175 155.899 33.5679 155.888C33.5384 155.657 33.5067 155.427 33.4775 155.197ZM51.3061 139.243C51.3413 139.445 51.3795 139.651 51.4216 139.861C51.0359 139.787 50.5942 139.735 50.1111 139.704C50.4964 139.564 50.8941 139.412 51.3061 139.243ZM52.2247 143.057C51.9286 143.027 51.6119 143.008 51.2787 142.997C51.5392 142.799 51.7967 142.598 52.0351 142.398C52.0961 142.616 52.1591 142.836 52.2247 143.057ZM45.3947 149.627C48.4496 148.193 50.0317 148.499 52.5361 146.618C52.7692 146.443 53.0081 146.263 53.24 146.082C54.0711 148.296 55.0658 150.409 56.0904 151.94C53.221 150.492 49.2789 149.316 45.3947 149.627ZM52.7487 131.362C52.8408 132.57 53.1375 134.106 53.5792 135.757C53.554 135.756 53.5291 135.756 53.5037 135.756C52.4073 135.205 51.8034 134.96 51.5923 135.079C51.3724 135.203 51.2251 135.477 51.1417 135.872C47.6963 136.2 43.0524 137.252 38.7864 139.49C35.0148 141.468 33.7605 143.207 33.112 144.593C32.8355 145.184 32.6096 145.839 32.4437 146.497C32.3586 145.734 32.2711 144.972 32.1888 144.207C34.0429 143.486 36.8461 136.524 43.7835 134.557C45.3547 134.112 48.652 133.49 52.7487 131.362ZM32.5662 155.884C32.6174 155.847 32.6666 155.815 32.7185 155.776C32.7976 155.716 32.8775 155.656 32.9575 155.596C32.9695 155.69 32.9825 155.785 32.9945 155.879C32.8538 155.879 32.7118 155.881 32.5662 155.884ZM34.1029 159.982C34.3266 159.84 34.5545 159.686 34.7929 159.507C35.1518 159.237 35.5249 158.957 35.8637 158.678C36.1261 158.942 36.395 159.097 36.6478 159.092C36.7467 159.091 36.8322 159.059 36.9127 159.012C36.6953 159.662 36.5672 160.299 36.5264 160.866C35.8126 160.891 35.0494 160.955 34.2516 161.068C34.2021 160.706 34.1517 160.344 34.1029 159.982ZM43.232 190.91H40.3474C39.9343 190.91 39.5275 190.943 39.1284 191.003C38.4214 187.264 37.7491 183.51 37.112 179.744C38.8083 179.932 40.5009 179.592 43.4624 178.976C45.5608 178.54 47.1764 178.197 48.3637 177.826C46.5972 182.175 44.888 186.54 43.232 190.91ZM49.9854 172.772C50.2226 172.551 50.4738 172.315 50.7355 172.069C50.5756 172.451 50.4198 172.835 50.2607 173.218C50.172 173.064 50.0797 172.915 49.9854 172.772ZM51.4439 162.58C49.6335 162.018 48.1186 162.184 47.1882 162.296C46.0216 162.437 42.7734 162.835 40.098 165.42C39.2049 165.396 38.1938 165.446 37.1164 165.581C37.6901 165.318 38.2838 164.976 38.9418 164.482C40.1073 163.607 41.4268 162.616 41.2116 161.93C41.1121 161.614 40.6753 161.351 40.0001 161.163C40.7607 160.66 41.7055 160.141 42.9155 159.751C45.4955 158.92 47.8183 159.146 49.1974 159.279C52.1827 159.569 53.4847 160.425 55.7143 160.516C55.2241 161.622 54.7405 162.731 54.2566 163.841C53.2215 163.135 51.9421 162.735 51.4439 162.58ZM58.0086 156.78C58.0283 156.737 58.0475 156.693 58.0671 156.649C58.2215 156.631 58.3739 156.612 58.5225 156.591C58.5331 156.815 58.5619 157.017 58.6066 157.197C58.4207 157.059 58.2187 156.92 58.0086 156.78ZM62.6925 148.302C62.6787 148.311 62.6651 148.322 62.6513 148.331C62.6843 148.213 62.7152 148.099 62.7451 147.987C62.9993 147.952 63.2899 147.881 63.614 147.782C63.2667 147.948 62.9625 148.124 62.6925 148.302Z" fill="#F2F2F2"/>
<path d="M100.059 265.693L106.387 265.692L109.397 241.302L100.058 241.303L100.059 265.693Z" fill="#FFB6B6"/>
<path d="M121.739 265.55C121.936 265.881 122.04 266.951 122.04 267.337C122.04 268.522 121.079 269.483 119.893 269.483H100.296C99.4867 269.483 98.8307 268.828 98.8307 268.019V267.204C98.8307 267.204 97.8612 264.753 99.8571 261.733C99.8571 261.733 102.338 264.098 106.044 260.394L107.137 258.415L115.05 264.198L119.435 264.737C120.395 264.855 121.246 264.719 121.739 265.55Z" fill="#2F2E41"/>
<path d="M134.91 265.693L141.237 265.692L144.248 241.302L134.908 241.303L134.91 265.693Z" fill="#FFB6B6"/>
<path d="M156.59 265.55C156.787 265.881 156.891 266.951 156.891 267.337C156.891 268.522 155.929 269.483 154.743 269.483H135.146C134.337 269.483 133.681 268.828 133.681 268.019V267.204C133.681 267.204 132.712 264.753 134.708 261.733C134.708 261.733 137.188 264.098 140.895 260.394L141.988 258.415L149.9 264.198L154.286 264.737C155.245 264.855 156.096 264.719 156.59 265.55Z" fill="#2F2E41"/>
<path d="M132.367 71.5362C132.367 71.5362 139.656 68.2195 144.309 71.5362C148.963 74.8529 153.112 104.703 148.133 109.678C143.155 114.654 134.857 103.46 134.857 103.46L132.367 71.5362Z" fill="#FFB6B6"/>
<path d="M104.822 71.9312C104.822 71.9312 97.5342 68.6145 92.8806 71.9312C88.227 75.248 84.0781 105.098 89.0568 110.073C94.0354 115.049 102.333 103.855 102.333 103.855L104.822 71.9312Z" fill="#FFB6B6"/>
<path d="M105.03 108.622C105.03 108.622 102.541 119.816 99.6364 124.791L120.796 137.229L137.391 126.45C137.391 126.45 129.508 113.598 130.753 109.866L105.03 108.622Z" fill="#FFB6B6"/>
<path d="M249.192 264.45L241.065 264.449L237.2 233.127L249.193 233.128L249.192 264.45Z" fill="#FFB6B6"/>
<path d="M221.35 264.266C221.097 264.692 220.963 266.066 220.963 266.561C220.963 268.083 222.198 269.317 223.722 269.317H248.888C249.927 269.317 250.769 268.476 250.769 267.437V266.39C250.769 266.39 252.014 263.243 249.451 259.365C249.451 259.365 246.266 262.402 241.505 257.645L240.102 255.104L229.941 262.53L224.309 263.223C223.076 263.374 221.984 263.199 221.35 264.266Z" fill="#2F2E41"/>
<path d="M274.311 264.45L266.185 264.449L262.319 233.127L274.312 233.128L274.311 264.45Z" fill="#FFB6B6"/>
<path d="M246.469 264.266C246.216 264.692 246.083 266.066 246.083 266.561C246.083 268.083 247.317 269.317 248.841 269.317H274.007C275.046 269.317 275.889 268.476 275.889 267.437V266.39C275.889 266.39 277.133 263.243 274.57 259.365C274.57 259.365 271.385 262.402 266.625 257.645L265.221 255.104L255.06 262.53L249.428 263.223C248.196 263.374 247.103 263.199 246.469 264.266Z" fill="#2F2E41"/>
<path d="M232.286 83.7611C232.286 83.7611 231.109 91.3314 232.472 96.2163L212.457 131.683L220.242 137.354L246.244 104.663L249.847 88.5112L232.286 83.7611Z" fill="#FFB6B6"/>
<path d="M219.048 142.513C221.806 137.625 221.593 132.283 218.572 130.58C215.551 128.878 210.866 131.46 208.108 136.348C205.35 141.235 205.563 146.578 208.584 148.28C211.604 149.982 216.289 147.4 219.048 142.513Z" fill="#FFB6B6"/>
<path d="M240.094 119.846C240.094 119.846 230.525 126.594 233.814 136.667L231.123 170.646L237.103 240.57H249.986L252.055 190.368L260.428 158.693L261.514 240.57L277.474 240.272C277.474 240.272 278.371 199.333 277.175 196.942C275.978 194.552 277.175 196.469 277.175 196.469L287.043 148.526L285.548 115.662L240.094 119.846Z" fill="#2F2E41"/>
<path d="M263.718 36.4735L246.374 43.0476L248.168 47.8288L233.814 58.5865L243.383 92.0548L238.001 121.937L253.55 121.34L287.043 118.351L283.454 81.8948L284.052 46.6335L270.895 41.8523L263.718 36.4735Z" fill="#6C63FF"/>
<path d="M238.3 57.6901L233.814 58.5865C233.814 58.5865 231.721 60.0807 231.721 65.4595C231.721 70.8383 231.721 74.4242 232.319 77.4125C232.319 77.4125 228.73 86.9748 229.926 89.3654C231.123 91.756 246.075 91.756 246.075 91.756L238.3 57.6901Z" fill="#6C63FF"/>
<path d="M263.016 22.6052C263.016 30.1293 256.912 36.2288 249.383 36.2288C241.853 36.2288 235.75 30.1293 235.75 22.6052C235.75 15.0812 241.853 8.98169 249.383 8.98169C256.912 8.98169 263.016 15.0812 263.016 22.6052Z" fill="#FFB6B6"/>
<path d="M257.903 32.0918C257.903 32.0918 260.318 22.8195 257.744 24.4545L253.75 24.0752L256.272 17.3342C256.272 17.3342 251.757 13.9522 249.957 15.9291C248.157 17.9061 248.589 19.0209 246.953 16.4493C245.316 13.8776 241.898 13.9262 238.766 15.7767C235.635 17.6272 233.188 17.9318 233.783 14.498C234.378 11.0643 234.045 5.22963 235.904 5.89133C237.763 6.55303 237.253 6.92651 238.255 4.52868C239.258 2.13084 239.384 0.800454 241.705 1.82625C244.025 2.85204 249.857 -1.96383 252.267 0.949797C254.676 3.86342 256.781 4.33177 258.886 4.80013C260.991 5.26848 269.447 3.92368 268.74 17.0121C268.74 17.0121 274.385 28.2873 264.217 33.4968C264.217 33.4968 261.458 30.7757 259.531 34.083L257.903 32.0918Z" fill="#2F2E41"/>
<path d="M127.019 61.3593L113.743 61.7738L106.689 70.4802L98.8066 72.1386C98.8066 72.1386 96.3173 95.3556 100.051 103.647C103.785 111.939 102.126 114.427 102.126 114.427L131.998 114.012C131.998 114.012 131.168 108.381 136.146 103.527L138.643 94.2934C139.978 89.3568 139.523 84.1076 137.359 79.4738L131.998 67.9927L127.434 66.3343L127.019 61.3593Z" fill="#2F2E41"/>
<path d="M102.126 119.402L100.259 122.511C100.259 122.511 94.4503 130.388 93.6205 152.776C92.7908 175.164 99.6364 247.608 99.6364 247.608H109.11L119.352 149.595L133.035 247.717L145.274 247.924L144.237 147.801C144.237 147.801 141.747 124.999 135.109 120.024C135.109 120.024 113.743 139.302 102.126 119.402Z" fill="#2F2E41"/>
<path d="M84.8472 70.2867C84.8472 74.5909 84.5877 77.7935 79.8842 78.0801C75.4666 78.3492 74.9213 74.5909 74.9213 70.2867C74.9213 65.9826 75.0241 62.5282 79.8842 62.4934C85.4175 62.4537 84.8472 65.9826 84.8472 70.2867Z" fill="#6C63FF"/>
<path d="M112.498 70.2866C112.498 74.5908 113.63 77.7934 107.535 78.08C102.846 78.3004 102.572 74.5908 102.572 70.2866C102.572 65.9825 103.261 62.9763 107.535 62.4933C111.555 62.039 112.498 65.9825 112.498 70.2866Z" fill="#6C63FF"/>
<path d="M108.244 66.7443H80.5932V73.1206H108.244V66.7443Z" fill="#6C63FF"/>
<path d="M132.559 69.0429C132.559 73.3471 132.3 76.5497 127.596 76.8363C123.178 77.1054 122.633 73.3471 122.633 69.0429C122.633 64.7388 122.736 61.2845 127.596 61.2496C133.129 61.2099 132.559 64.7388 132.559 69.0429Z" fill="#6C63FF"/>
<path d="M160.21 69.0429C160.21 73.347 161.342 76.5496 155.247 76.8362C150.558 77.0567 150.284 73.347 150.284 69.0429C150.284 64.7387 150.973 61.7325 155.247 61.2495C159.267 60.7952 160.21 64.7387 160.21 69.0429Z" fill="#6C63FF"/>
<path d="M155.956 65.5005H128.305V71.8769H155.956V65.5005Z" fill="#6C63FF"/>
<path d="M204.749 137.036C204.749 141.34 204.49 144.542 199.786 144.829C195.369 145.098 194.823 141.34 194.823 137.036C194.823 132.731 194.926 129.277 199.786 129.242C205.32 129.203 204.749 132.731 204.749 137.036Z" fill="#6C63FF"/>
<path d="M232.4 137.036C232.4 141.34 233.532 144.542 227.437 144.829C222.748 145.049 222.474 141.34 222.474 137.036C222.474 132.731 223.163 129.725 227.437 129.242C231.457 128.788 232.4 132.731 232.4 137.036Z" fill="#6C63FF"/>
<path d="M228.146 133.493H200.495V139.869H228.146V133.493Z" fill="#6C63FF"/>
<path d="M142.343 78.8358C145.32 78.8358 147.733 74.9312 147.733 70.1147C147.733 65.2981 145.32 61.3936 142.343 61.3936C139.366 61.3936 136.952 65.2981 136.952 70.1147C136.952 74.9312 139.366 78.8358 142.343 78.8358Z" fill="#FFB6B6"/>
<path d="M116.854 56.3842C124.988 56.3842 131.583 49.7948 131.583 41.6663C131.583 33.5378 124.988 26.9484 116.854 26.9484C108.72 26.9484 102.126 33.5378 102.126 41.6663C102.126 49.7948 108.72 56.3842 116.854 56.3842Z" fill="#FFB6B6"/>
<path d="M113.897 46.2909L117.305 40.8717L118.84 33.5017C118.84 33.5017 134.363 37.2853 130.199 29.718C126.034 22.1508 115.432 20.259 108.238 25.9344L105.137 28.9613C105.137 28.9613 112.024 22.5291 107.859 20.259C103.694 17.9888 104.451 16.4754 102.18 18.3672C99.9079 20.259 101.044 21.7724 98.3933 20.6373C95.7429 19.5022 90.0634 17.9888 90.8207 19.8806C91.5779 21.7724 85.8656 26.6911 87.9645 28.9613C90.0634 31.2315 88.1702 35.7718 91.9566 34.6367C95.7429 33.5017 93.8497 39.1771 97.2574 36.9069C97.2574 36.9069 94.4604 40.4687 96.7322 43.1173C99.004 45.7658 102.504 46.7963 102.126 50.5799C101.747 54.3635 110.838 55.1404 110.838 55.1404L110.131 44.0958C110.131 44.0958 112.383 42.2511 113.897 46.2909Z" fill="#2F2E41"/>
<path d="M263.848 71.6871C263.848 71.6871 261.676 79.0345 262.379 84.0569L237.832 116.557L244.796 123.21L274.907 94.2548L280.623 78.7232L263.848 71.6871Z" fill="#FFB6B6"/>
<path d="M242.927 128.165C246.31 123.686 246.808 118.363 244.04 116.275C241.272 114.187 236.285 116.125 232.903 120.604C229.52 125.083 229.022 130.406 231.79 132.494C234.558 134.582 239.545 132.643 242.927 128.165Z" fill="#FFB6B6"/>
<path d="M281.636 44.6702C281.636 44.6702 289.283 47.4424 288.31 52.6988C287.338 57.9552 286.968 61.4205 286.968 61.4205C286.968 61.4205 287.797 64.2917 286.716 65.7228C285.635 67.1539 280.086 83.934 280.086 83.934L260.127 77.1174C260.127 77.1174 271.827 44.7601 281.636 44.6702Z" fill="#6C63FF"/>
<path d="M334 269.652C334 269.844 333.844 270 333.651 270H0.348517C0.156039 270 0 269.844 0 269.652C0 269.459 0.156035 269.303 0.348517 269.303H333.651C333.844 269.303 334 269.459 334 269.652Z" fill="#E6E6E6"/>
<path d="M100.238 70.5096C100.238 75.3261 97.8243 79.2307 94.8472 79.2307C91.8702 79.2307 89.4568 75.3261 89.4568 70.5096C89.4568 65.693 91.8702 61.7885 94.8472 61.7885C97.8243 61.7885 100.238 65.693 100.238 70.5096Z" fill="#FFB6B6"/>
</g>
<defs>
<clipPath id="clip0_1_17">
<rect width="334" height="270" fill="white"/>
</clipPath>
</defs>
</svg>
